<mxfile host="65bd71144e">
    <diagram id="J-eCmaE-NbafVPP7Y0gS" name="Page-1">
        <mxGraphModel dx="3707" dy="1966" grid="1" gridSize="10" guides="1" tooltips="1" connect="1" arrows="1" fold="1" page="1" pageScale="1" pageWidth="850" pageHeight="1100" math="0" shadow="0">
            <root>
                <mxCell id="0"/>
                <mxCell id="1" parent="0"/>
                <mxCell id="22" style="edgeStyle=none;html=1;exitX=0.5;exitY=1;exitDx=0;exitDy=0;exitPerimeter=0;entryX=0.5;entryY=0;entryDx=0;entryDy=0;entryPerimeter=0;" edge="1" parent="1" source="3" target="9">
                    <mxGeometry relative="1" as="geometry"/>
                </mxCell>
                <mxCell id="23" style="edgeStyle=none;html=1;exitX=0.5;exitY=1;exitDx=0;exitDy=0;exitPerimeter=0;entryX=0.5;entryY=0;entryDx=0;entryDy=0;entryPerimeter=0;" edge="1" parent="1" source="3" target="10">
                    <mxGeometry relative="1" as="geometry"/>
                </mxCell>
                <mxCell id="24" style="edgeStyle=none;html=1;exitX=0.5;exitY=1;exitDx=0;exitDy=0;exitPerimeter=0;entryX=0.5;entryY=0;entryDx=0;entryDy=0;entryPerimeter=0;" edge="1" parent="1" source="3" target="8">
                    <mxGeometry relative="1" as="geometry"/>
                </mxCell>
                <mxCell id="31" style="edgeStyle=none;html=1;exitX=0.5;exitY=1;exitDx=0;exitDy=0;exitPerimeter=0;entryX=0.5;entryY=0;entryDx=0;entryDy=0;entryPerimeter=0;" edge="1" parent="1" source="3" target="30">
                    <mxGeometry relative="1" as="geometry"/>
                </mxCell>
                <mxCell id="33" style="edgeStyle=none;html=1;exitX=0.5;exitY=1;exitDx=0;exitDy=0;exitPerimeter=0;entryX=0.5;entryY=0;entryDx=0;entryDy=0;entryPerimeter=0;" edge="1" parent="1" source="3" target="32">
                    <mxGeometry relative="1" as="geometry"/>
                </mxCell>
                <mxCell id="3" value="Dashboard" style="html=1;strokeColor=none;fillColor=#0079D6;labelPosition=center;verticalLabelPosition=middle;verticalAlign=top;align=center;fontSize=12;outlineConnect=0;spacingTop=-6;fontColor=#FFFFFF;sketch=0;shape=mxgraph.sitemap.home;" vertex="1" parent="1">
                    <mxGeometry x="-255" y="460" width="120" height="70" as="geometry"/>
                </mxCell>
                <mxCell id="25" style="edgeStyle=none;html=1;exitX=0.5;exitY=1;exitDx=0;exitDy=0;exitPerimeter=0;entryX=0.5;entryY=0;entryDx=0;entryDy=0;entryPerimeter=0;" edge="1" parent="1" source="4" target="11">
                    <mxGeometry relative="1" as="geometry"/>
                </mxCell>
                <mxCell id="26" style="edgeStyle=none;html=1;exitX=0.5;exitY=1;exitDx=0;exitDy=0;exitPerimeter=0;entryX=0.5;entryY=0;entryDx=0;entryDy=0;entryPerimeter=0;" edge="1" parent="1" source="4" target="12">
                    <mxGeometry relative="1" as="geometry"/>
                </mxCell>
                <mxCell id="4" value="Admin" style="html=1;strokeColor=#C73500;fillColor=#fa6800;labelPosition=center;verticalLabelPosition=middle;verticalAlign=top;align=center;fontSize=12;outlineConnect=0;spacingTop=-6;fontColor=#000000;sketch=0;shape=mxgraph.sitemap.security;" vertex="1" parent="1">
                    <mxGeometry x="425" y="470" width="120" height="70" as="geometry"/>
                </mxCell>
                <mxCell id="6" style="edgeStyle=none;html=1;exitX=0.5;exitY=1;exitDx=0;exitDy=0;exitPerimeter=0;entryX=0.5;entryY=0;entryDx=0;entryDy=0;entryPerimeter=0;" edge="1" parent="1" source="5" target="3">
                    <mxGeometry relative="1" as="geometry"/>
                </mxCell>
                <mxCell id="7" style="edgeStyle=none;html=1;exitX=0.5;exitY=1;exitDx=0;exitDy=0;exitPerimeter=0;entryX=0.5;entryY=0;entryDx=0;entryDy=0;entryPerimeter=0;" edge="1" parent="1" source="5" target="4">
                    <mxGeometry relative="1" as="geometry"/>
                </mxCell>
                <mxCell id="45" style="edgeStyle=none;html=1;exitX=0.75;exitY=0;exitDx=0;exitDy=0;exitPerimeter=0;entryX=0.75;entryY=1;entryDx=0;entryDy=0;entryPerimeter=0;" edge="1" parent="1" source="5" target="34">
                    <mxGeometry relative="1" as="geometry"/>
                </mxCell>
                <mxCell id="5" value="Login" style="html=1;strokeColor=none;fillColor=#0079D6;labelPosition=center;verticalLabelPosition=middle;verticalAlign=top;align=center;fontSize=12;outlineConnect=0;spacingTop=-6;fontColor=#FFFFFF;sketch=0;shape=mxgraph.sitemap.login;" vertex="1" parent="1">
                    <mxGeometry x="-60" y="310" width="120" height="70" as="geometry"/>
                </mxCell>
                <mxCell id="8" value="Account" style="html=1;strokeColor=none;fillColor=#0079D6;labelPosition=center;verticalLabelPosition=middle;verticalAlign=top;align=center;fontSize=12;outlineConnect=0;spacingTop=-6;fontColor=#FFFFFF;sketch=0;shape=mxgraph.sitemap.user;" vertex="1" parent="1">
                    <mxGeometry x="65" y="610" width="90" height="60" as="geometry"/>
                </mxCell>
                <mxCell id="9" value="Dompro Sync" style="html=1;strokeColor=none;fillColor=#0079D6;labelPosition=center;verticalLabelPosition=middle;verticalAlign=top;align=center;fontSize=12;outlineConnect=0;spacingTop=-6;fontColor=#FFFFFF;sketch=0;shape=mxgraph.sitemap.jobs;" vertex="1" parent="1">
                    <mxGeometry x="-380" y="610" width="90" height="60" as="geometry"/>
                </mxCell>
                <mxCell id="10" value="Divalto Sync" style="html=1;strokeColor=#6F0000;fillColor=#a20025;labelPosition=center;verticalLabelPosition=middle;verticalAlign=top;align=center;fontSize=12;outlineConnect=0;spacingTop=-6;fontColor=#ffffff;sketch=0;shape=mxgraph.sitemap.jobs;" vertex="1" parent="1">
                    <mxGeometry x="-150" y="610" width="90" height="60" as="geometry"/>
                </mxCell>
                <mxCell id="11" value="Users" style="html=1;strokeColor=#C73500;fillColor=#fa6800;labelPosition=center;verticalLabelPosition=middle;verticalAlign=top;align=center;fontSize=12;outlineConnect=0;spacingTop=-6;fontColor=#000000;sketch=0;shape=mxgraph.sitemap.about_us;" vertex="1" parent="1">
                    <mxGeometry x="275" y="610" width="90" height="60" as="geometry"/>
                </mxCell>
                <mxCell id="12" value="Settings" style="html=1;strokeColor=#6F0000;fillColor=#a20025;labelPosition=center;verticalLabelPosition=middle;verticalAlign=top;align=center;fontSize=12;outlineConnect=0;spacingTop=-6;fontColor=#ffffff;sketch=0;shape=mxgraph.sitemap.settings;" vertex="1" parent="1">
                    <mxGeometry x="640" y="610" width="90" height="60" as="geometry"/>
                </mxCell>
                <mxCell id="14" value="Last Sync" style="html=1;strokeColor=#006EAF;fillColor=#1ba1e2;labelPosition=center;verticalLabelPosition=middle;verticalAlign=top;align=center;fontSize=12;outlineConnect=0;spacingTop=-6;fontColor=#ffffff;sketch=0;shape=mxgraph.sitemap.page;labelBackgroundColor=none;" vertex="1" parent="1">
                    <mxGeometry x="-370" y="690" width="80" height="60" as="geometry"/>
                </mxCell>
                <mxCell id="15" value="Tables" style="html=1;strokeColor=#006EAF;fillColor=#1ba1e2;labelPosition=center;verticalLabelPosition=middle;verticalAlign=top;align=center;fontSize=12;outlineConnect=0;spacingTop=-6;fontColor=#ffffff;sketch=0;shape=mxgraph.sitemap.page;labelBackgroundColor=none;" vertex="1" parent="1">
                    <mxGeometry x="-370" y="770" width="80" height="60" as="geometry"/>
                </mxCell>
                <mxCell id="16" value="Heavy Sync" style="html=1;strokeColor=#006EAF;fillColor=#1ba1e2;labelPosition=center;verticalLabelPosition=middle;verticalAlign=top;align=center;fontSize=12;outlineConnect=0;spacingTop=-6;fontColor=#ffffff;sketch=0;shape=mxgraph.sitemap.page;labelBackgroundColor=none;" vertex="1" parent="1">
                    <mxGeometry x="-370" y="850" width="80" height="60" as="geometry"/>
                </mxCell>
                <mxCell id="17" value="Light Sync" style="html=1;strokeColor=#006EAF;fillColor=#1ba1e2;labelPosition=center;verticalLabelPosition=middle;verticalAlign=top;align=center;fontSize=12;outlineConnect=0;spacingTop=-6;fontColor=#ffffff;sketch=0;shape=mxgraph.sitemap.page;labelBackgroundColor=none;" vertex="1" parent="1">
                    <mxGeometry x="-370" y="930" width="80" height="60" as="geometry"/>
                </mxCell>
                <mxCell id="18" value="Last Sync" style="html=1;strokeColor=#6F0000;fillColor=#a20025;labelPosition=center;verticalLabelPosition=middle;verticalAlign=top;align=center;fontSize=12;outlineConnect=0;spacingTop=-6;fontColor=#ffffff;sketch=0;shape=mxgraph.sitemap.page;labelBackgroundColor=none;" vertex="1" parent="1">
                    <mxGeometry x="-135" y="690" width="80" height="60" as="geometry"/>
                </mxCell>
                <mxCell id="19" value="Tables" style="html=1;strokeColor=#6F0000;fillColor=#a20025;labelPosition=center;verticalLabelPosition=middle;verticalAlign=top;align=center;fontSize=12;outlineConnect=0;spacingTop=-6;fontColor=#ffffff;sketch=0;shape=mxgraph.sitemap.page;labelBackgroundColor=none;" vertex="1" parent="1">
                    <mxGeometry x="-135" y="770" width="80" height="60" as="geometry"/>
                </mxCell>
                <mxCell id="20" value="Heavy Sync" style="html=1;strokeColor=#6F0000;fillColor=#a20025;labelPosition=center;verticalLabelPosition=middle;verticalAlign=top;align=center;fontSize=12;outlineConnect=0;spacingTop=-6;fontColor=#ffffff;sketch=0;shape=mxgraph.sitemap.page;labelBackgroundColor=none;" vertex="1" parent="1">
                    <mxGeometry x="-135" y="850" width="80" height="60" as="geometry"/>
                </mxCell>
                <mxCell id="21" value="Light Sync" style="html=1;strokeColor=#6F0000;fillColor=#a20025;labelPosition=center;verticalLabelPosition=middle;verticalAlign=top;align=center;fontSize=12;outlineConnect=0;spacingTop=-6;fontColor=#ffffff;sketch=0;shape=mxgraph.sitemap.page;labelBackgroundColor=none;" vertex="1" parent="1">
                    <mxGeometry x="-135" y="930" width="80" height="60" as="geometry"/>
                </mxCell>
                <mxCell id="40" style="edgeStyle=none;html=1;exitX=1;exitY=0.5;exitDx=0;exitDy=0;exitPerimeter=0;entryX=0;entryY=0.5;entryDx=0;entryDy=0;entryPerimeter=0;" edge="1" parent="1" source="28" target="37">
                    <mxGeometry relative="1" as="geometry"/>
                </mxCell>
                <mxCell id="42" style="edgeStyle=none;html=1;exitX=0;exitY=0.25;exitDx=0;exitDy=0;exitPerimeter=0;entryX=1;entryY=0.25;entryDx=0;entryDy=0;entryPerimeter=0;" edge="1" parent="1" source="28" target="36">
                    <mxGeometry relative="1" as="geometry"/>
                </mxCell>
                <mxCell id="28" value="Alerts" style="html=1;strokeColor=#314354;fillColor=#647687;labelPosition=center;verticalLabelPosition=middle;verticalAlign=top;align=center;fontSize=12;outlineConnect=0;spacingTop=-6;fontColor=#ffffff;sketch=0;shape=mxgraph.sitemap.warning;labelBackgroundColor=none;" vertex="1" parent="1">
                    <mxGeometry x="400" y="80" width="120" height="70" as="geometry"/>
                </mxCell>
                <mxCell id="30" value="Products" style="html=1;strokeColor=#6F0000;fillColor=#a20025;labelPosition=center;verticalLabelPosition=middle;verticalAlign=top;align=center;fontSize=12;outlineConnect=0;spacingTop=-6;fontColor=#ffffff;sketch=0;shape=mxgraph.sitemap.products;labelBackgroundColor=none;" vertex="1" parent="1">
                    <mxGeometry x="-800" y="610" width="90" height="60" as="geometry"/>
                </mxCell>
                <mxCell id="32" value="Orders" style="html=1;strokeColor=#6F0000;fillColor=#a20025;labelPosition=center;verticalLabelPosition=middle;verticalAlign=top;align=center;fontSize=12;outlineConnect=0;spacingTop=-6;fontColor=#ffffff;sketch=0;shape=mxgraph.sitemap.log;labelBackgroundColor=none;" vertex="1" parent="1">
                    <mxGeometry x="-590" y="610" width="100" height="60" as="geometry"/>
                </mxCell>
                <mxCell id="38" style="edgeStyle=none;html=1;exitX=1;exitY=0.5;exitDx=0;exitDy=0;exitPerimeter=0;entryX=0;entryY=0.5;entryDx=0;entryDy=0;entryPerimeter=0;" edge="1" parent="1" source="34" target="36">
                    <mxGeometry relative="1" as="geometry"/>
                </mxCell>
                <mxCell id="44" style="edgeStyle=none;html=1;exitX=0.5;exitY=1;exitDx=0;exitDy=0;exitPerimeter=0;entryX=0.5;entryY=0;entryDx=0;entryDy=0;entryPerimeter=0;" edge="1" parent="1" source="34" target="5">
                    <mxGeometry relative="1" as="geometry"/>
                </mxCell>
                <mxCell id="34" value="App Index" style="html=1;strokeColor=none;fillColor=#0079D6;labelPosition=center;verticalLabelPosition=middle;verticalAlign=top;align=center;fontSize=12;outlineConnect=0;spacingTop=-6;fontColor=#FFFFFF;sketch=0;shape=mxgraph.sitemap.document;labelBackgroundColor=none;" vertex="1" parent="1">
                    <mxGeometry x="-60" y="80" width="120" height="70" as="geometry"/>
                </mxCell>
                <mxCell id="39" style="edgeStyle=none;html=1;exitX=1;exitY=0.5;exitDx=0;exitDy=0;exitPerimeter=0;" edge="1" parent="1" source="36" target="28">
                    <mxGeometry relative="1" as="geometry"/>
                </mxCell>
                <mxCell id="43" style="edgeStyle=none;html=1;exitX=0;exitY=0.25;exitDx=0;exitDy=0;exitPerimeter=0;entryX=1;entryY=0.25;entryDx=0;entryDy=0;entryPerimeter=0;" edge="1" parent="1" source="36" target="34">
                    <mxGeometry relative="1" as="geometry"/>
                </mxCell>
                <mxCell id="36" value="Services" style="html=1;strokeColor=#314354;fillColor=#647687;labelPosition=center;verticalLabelPosition=middle;verticalAlign=top;align=center;fontSize=12;outlineConnect=0;spacingTop=-6;fontColor=#ffffff;sketch=0;shape=mxgraph.sitemap.services;labelBackgroundColor=none;" vertex="1" parent="1">
                    <mxGeometry x="160" y="80" width="120" height="70" as="geometry"/>
                </mxCell>
                <mxCell id="41" style="edgeStyle=none;html=1;exitX=0;exitY=0.25;exitDx=0;exitDy=0;exitPerimeter=0;entryX=1;entryY=0.25;entryDx=0;entryDy=0;entryPerimeter=0;" edge="1" parent="1" source="37" target="28">
                    <mxGeometry relative="1" as="geometry"/>
                </mxCell>
                <mxCell id="37" value="Interceptor" style="html=1;strokeColor=#314354;fillColor=#647687;labelPosition=center;verticalLabelPosition=middle;verticalAlign=top;align=center;fontSize=12;outlineConnect=0;spacingTop=-6;fontColor=#ffffff;sketch=0;shape=mxgraph.sitemap.script;labelBackgroundColor=none;" vertex="1" parent="1">
                    <mxGeometry x="680" y="80" width="120" height="70" as="geometry"/>
                </mxCell>
                <mxCell id="47" value="Application SiteMap" style="shape=partialRectangle;html=1;top=1;align=left;dashed=1;" vertex="1" parent="1">
                    <mxGeometry x="-800" y="20" width="1640" height="20" as="geometry"/>
                </mxCell>
                <mxCell id="48" value="Antoine Fusilier - Remise Projet 2023 - 3W Academy - Développeur FullStack Web et Mobile" style="shape=partialRectangle;html=1;top=1;align=left;dashed=1;" vertex="1" parent="1">
                    <mxGeometry x="-800" y="1070" width="1640" height="20" as="geometry"/>
                </mxCell>
                <mxCell id="49" value="All orders" style="html=1;strokeColor=#6F0000;fillColor=#a20025;labelPosition=center;verticalLabelPosition=middle;verticalAlign=top;align=center;fontSize=12;outlineConnect=0;spacingTop=-6;fontColor=#ffffff;sketch=0;shape=mxgraph.sitemap.page;labelBackgroundColor=none;" vertex="1" parent="1">
                    <mxGeometry x="-570" y="690" width="80" height="60" as="geometry"/>
                </mxCell>
                <mxCell id="50" value="Returns" style="html=1;strokeColor=#6F0000;fillColor=#a20025;labelPosition=center;verticalLabelPosition=middle;verticalAlign=top;align=center;fontSize=12;outlineConnect=0;spacingTop=-6;fontColor=#ffffff;sketch=0;shape=mxgraph.sitemap.page;labelBackgroundColor=none;" vertex="1" parent="1">
                    <mxGeometry x="-570" y="770" width="80" height="60" as="geometry"/>
                </mxCell>
                <mxCell id="51" value="Preparing" style="html=1;strokeColor=#6F0000;fillColor=#a20025;labelPosition=center;verticalLabelPosition=middle;verticalAlign=top;align=center;fontSize=12;outlineConnect=0;spacingTop=-6;fontColor=#ffffff;sketch=0;shape=mxgraph.sitemap.page;labelBackgroundColor=none;" vertex="1" parent="1">
                    <mxGeometry x="-570" y="860" width="80" height="60" as="geometry"/>
                </mxCell>
                <mxCell id="52" value="Issues" style="html=1;strokeColor=#6F0000;fillColor=#a20025;labelPosition=center;verticalLabelPosition=middle;verticalAlign=top;align=center;fontSize=12;outlineConnect=0;spacingTop=-6;fontColor=#ffffff;sketch=0;shape=mxgraph.sitemap.page;labelBackgroundColor=none;" vertex="1" parent="1">
                    <mxGeometry x="-570" y="940" width="80" height="60" as="geometry"/>
                </mxCell>
                <mxCell id="53" value="All product" style="html=1;strokeColor=#6F0000;fillColor=#a20025;labelPosition=center;verticalLabelPosition=middle;verticalAlign=top;align=center;fontSize=12;outlineConnect=0;spacingTop=-6;fontColor=#ffffff;sketch=0;shape=mxgraph.sitemap.page;labelBackgroundColor=none;" vertex="1" parent="1">
                    <mxGeometry x="-790" y="690" width="80" height="60" as="geometry"/>
                </mxCell>
                <mxCell id="54" value="Modules" style="html=1;strokeColor=#6F0000;fillColor=#a20025;labelPosition=center;verticalLabelPosition=middle;verticalAlign=top;align=center;fontSize=12;outlineConnect=0;spacingTop=-6;fontColor=#ffffff;sketch=0;shape=mxgraph.sitemap.page;labelBackgroundColor=none;" vertex="1" parent="1">
                    <mxGeometry x="-790" y="770" width="80" height="60" as="geometry"/>
                </mxCell>
                <mxCell id="55" value="Create" style="html=1;strokeColor=#6F0000;fillColor=#a20025;labelPosition=center;verticalLabelPosition=middle;verticalAlign=top;align=center;fontSize=12;outlineConnect=0;spacingTop=-6;fontColor=#ffffff;sketch=0;shape=mxgraph.sitemap.page;labelBackgroundColor=none;" vertex="1" parent="1">
                    <mxGeometry x="-790" y="850" width="80" height="60" as="geometry"/>
                </mxCell>
                <mxCell id="56" value="Settings" style="html=1;strokeColor=#6F0000;fillColor=#a20025;labelPosition=center;verticalLabelPosition=middle;verticalAlign=top;align=center;fontSize=12;outlineConnect=0;spacingTop=-6;fontColor=#ffffff;sketch=0;shape=mxgraph.sitemap.page;labelBackgroundColor=none;" vertex="1" parent="1">
                    <mxGeometry x="-790" y="930" width="80" height="60" as="geometry"/>
                </mxCell>
                <mxCell id="57" value="My account" style="html=1;strokeColor=#006EAF;fillColor=#1ba1e2;labelPosition=center;verticalLabelPosition=middle;verticalAlign=top;align=center;fontSize=12;outlineConnect=0;spacingTop=-6;fontColor=#ffffff;sketch=0;shape=mxgraph.sitemap.page;labelBackgroundColor=none;" vertex="1" parent="1">
                    <mxGeometry x="75" y="690" width="80" height="60" as="geometry"/>
                </mxCell>
                <mxCell id="58" value="Users list" style="html=1;strokeColor=#006EAF;fillColor=#1ba1e2;labelPosition=center;verticalLabelPosition=middle;verticalAlign=top;align=center;fontSize=12;outlineConnect=0;spacingTop=-6;fontColor=#ffffff;sketch=0;shape=mxgraph.sitemap.page;labelBackgroundColor=none;" vertex="1" parent="1">
                    <mxGeometry x="285" y="690" width="80" height="60" as="geometry"/>
                </mxCell>
                <mxCell id="59" value="Create user" style="html=1;strokeColor=#006EAF;fillColor=#1ba1e2;labelPosition=center;verticalLabelPosition=middle;verticalAlign=top;align=center;fontSize=12;outlineConnect=0;spacingTop=-6;fontColor=#ffffff;sketch=0;shape=mxgraph.sitemap.page;labelBackgroundColor=none;" vertex="1" parent="1">
                    <mxGeometry x="285" y="770" width="80" height="60" as="geometry"/>
                </mxCell>
                <mxCell id="61" value="User Service" style="html=1;strokeColor=#314354;fillColor=#647687;labelPosition=center;verticalLabelPosition=middle;verticalAlign=top;align=center;fontSize=12;outlineConnect=0;spacingTop=-6;fontColor=#ffffff;sketch=0;shape=mxgraph.sitemap.services;labelBackgroundColor=none;" vertex="1" parent="1">
                    <mxGeometry x="180" y="170" width="100" height="60" as="geometry"/>
                </mxCell>
                <mxCell id="62" value="Alerts Service" style="html=1;strokeColor=#314354;fillColor=#647687;labelPosition=center;verticalLabelPosition=middle;verticalAlign=top;align=center;fontSize=12;outlineConnect=0;spacingTop=-6;fontColor=#ffffff;sketch=0;shape=mxgraph.sitemap.services;labelBackgroundColor=none;" vertex="1" parent="1">
                    <mxGeometry x="180" y="240" width="100" height="60" as="geometry"/>
                </mxCell>
                <mxCell id="63" value="API Check" style="html=1;strokeColor=#314354;fillColor=#647687;labelPosition=center;verticalLabelPosition=middle;verticalAlign=top;align=center;fontSize=12;outlineConnect=0;spacingTop=-6;fontColor=#ffffff;sketch=0;shape=mxgraph.sitemap.services;labelBackgroundColor=none;" vertex="1" parent="1">
                    <mxGeometry x="700" y="170" width="100" height="60" as="geometry"/>
                </mxCell>
                <mxCell id="64" value="Error Intercept" style="html=1;strokeColor=#314354;fillColor=#647687;labelPosition=center;verticalLabelPosition=middle;verticalAlign=top;align=center;fontSize=12;outlineConnect=0;spacingTop=-6;fontColor=#ffffff;sketch=0;shape=mxgraph.sitemap.services;labelBackgroundColor=none;" vertex="1" parent="1">
                    <mxGeometry x="700" y="240" width="100" height="60" as="geometry"/>
                </mxCell>
                <mxCell id="66" value="Alert Component" style="html=1;strokeColor=#314354;fillColor=#647687;labelPosition=center;verticalLabelPosition=middle;verticalAlign=top;align=center;fontSize=12;outlineConnect=0;spacingTop=-6;fontColor=#ffffff;sketch=0;shape=mxgraph.sitemap.warning;labelBackgroundColor=none;" vertex="1" parent="1">
                    <mxGeometry x="420" y="170" width="100" height="60" as="geometry"/>
                </mxCell>
                <mxCell id="68" value="Installation" style="html=1;strokeColor=#6F0000;fillColor=#a20025;labelPosition=center;verticalLabelPosition=middle;verticalAlign=top;align=center;fontSize=12;outlineConnect=0;spacingTop=-6;fontColor=#ffffff;sketch=0;shape=mxgraph.sitemap.settings;" vertex="1" parent="1">
                    <mxGeometry x="660" y="690" width="70" height="50" as="geometry"/>
                </mxCell>
                <mxCell id="69" value="Server" style="html=1;strokeColor=#6F0000;fillColor=#a20025;labelPosition=center;verticalLabelPosition=middle;verticalAlign=top;align=center;fontSize=12;outlineConnect=0;spacingTop=-6;fontColor=#ffffff;sketch=0;shape=mxgraph.sitemap.settings;" vertex="1" parent="1">
                    <mxGeometry x="660" y="760" width="70" height="50" as="geometry"/>
                </mxCell>
                <mxCell id="70" value="Prestashop" style="html=1;strokeColor=#6F0000;fillColor=#a20025;labelPosition=center;verticalLabelPosition=middle;verticalAlign=top;align=center;fontSize=12;outlineConnect=0;spacingTop=-6;fontColor=#ffffff;sketch=0;shape=mxgraph.sitemap.settings;" vertex="1" parent="1">
                    <mxGeometry x="660" y="820" width="70" height="50" as="geometry"/>
                </mxCell>
            </root>
        </mxGraphModel>
    </diagram>
</mxfile>
